<?xml version="1.0" encoding="UTF-8"?>
<svg width="300px" height="179px" viewBox="0 0 300 179" version="1.1" xmlns="http://www.w3.org/2000/svg" xmlns:xlink="http://www.w3.org/1999/xlink">
    <!-- Generator: Sketch 63.1 (92452) - https://sketch.com -->
    <title>awards-mindsparkle</title>
    <desc>Created with Sketch.</desc>
    <defs>
        <rect id="path-1" x="0" y="0" width="300" height="179"></rect>
        <polygon id="path-3" points="0 0.653975 236.171 0.653975 236.171 37 0 37"></polygon>
    </defs>
    <g id="V2.0" stroke="none" stroke-width="1" fill="none" fill-rule="evenodd">
        <g id="awards-mindsparkle">
            <mask id="mask-2" fill="white">
                <use xlink:href="#path-1"></use>
            </mask>
            <g id="Mask"></g>
            <g id="logo-main" mask="url(#mask-2)">
                <g transform="translate(30.382353, 70.500000)">
                    <g id="Clipped" stroke-width="1" fill="none" fill-rule="evenodd">
                        <mask id="mask-4" fill="white">
                            <use xlink:href="#path-3"></use>
                        </mask>
                        <g id="a"></g>
                        <path d="M23.38215,30.74145 L23.38215,9.10015 L19.383375,9.10015 L11.69015,26.714 L4.0589,9.102 L0,9.102 L0,30.742375 L2.960925,30.742375 L2.960925,13.89165 L10.286925,30.74145 L13.034175,30.74145 L20.421225,13.89165 L20.421225,30.74145 L23.38215,30.74145 Z M31.41115,16.058925 L28.5714,16.058925 L28.5714,30.74145 L31.41115,30.74145 L31.41115,16.058925 L31.41115,16.058925 Z M27.9303748,10.503375 C27.9301295,11.0458644 28.1455238,11.5662053 28.5291218,11.9498032 C28.9127197,12.3334012 29.4330606,12.5487955 29.97555,12.5485502 C31.1355,12.5485502 32.05125,11.633725 32.05125,10.5043 C32.05125,9.343425 31.1355,8.427675 29.97555,8.427675 C28.8452,8.427675 27.9313,9.343425 27.9313,10.503375 L27.9303748,10.503375 Z M39.1645,22.2555 C39.1645,20.027175 40.323525,18.227125 42.5833,18.227125 C45.14555,18.227125 46.0021,19.87455 46.0021,21.919725 L46.0021,30.74145 L48.87145,30.74145 L48.87145,21.43225 C48.87145,18.167 47.13245,15.6325 43.62115,15.6325 C41.9099,15.6325 40.1709,16.33365 39.10345,18.16515 L39.10345,16.058925 L36.29515,16.058925 L36.29515,30.74145 L39.1645,30.74145 L39.1645,22.2555 L39.1645,22.2555 Z M55.1596,23.35625 C55.1596,20.332425 56.868075,18.195675 59.495075,18.195675 C62.120225,18.195675 63.707525,20.2723 63.707525,23.2952 C63.707525,26.317175 62.0897,28.605625 59.46455,28.605625 C56.7173,28.603775 55.1596,26.376375 55.1596,23.35625 L55.1596,23.35625 Z M63.737125,28.75825 C63.737125,29.643475 63.829625,30.40475 63.88975,30.74145 L66.667525,30.74145 C66.5635892,29.8393273 66.5126268,28.9318874 66.5149,28.0238 L66.5149,8.640425 L63.676075,8.640425 L63.676075,18.134625 C63.18675,16.94415 61.783525,15.661175 59.189825,15.661175 C55.0375,15.661175 52.2292,19.202075 52.2292,23.353475 C52.2292,27.719475 54.884875,31.138275 59.1889,31.138275 C61.478275,31.138275 63.0332,29.917275 63.737125,28.511275 L63.737125,28.757325 L63.737125,28.75825 Z M70.025275,26.92675 C70.269475,28.603775 71.978875,31.20025 76.008175,31.20025 C79.639725,31.20025 81.37965,28.7268 81.37965,26.6511 C81.37965,24.4829 79.976425,22.866 77.32075,22.286025 L74.938875,21.766175 C73.810375,21.521975 73.26185,20.88095 73.26185,19.99665 C73.26185,18.9884 74.23865,18.042125 75.70385,18.042125 C78.022825,18.042125 78.633325,19.721 78.75635,20.485975 L81.29085,19.542475 C80.98375,18.228975 79.73315,15.601975 75.70385,15.601975 C72.8345,15.601975 70.484075,17.740575 70.484075,20.2427 C70.484075,22.319325 71.85585,23.8761 74.147075,24.363575 L76.650125,24.913025 C77.869275,25.188675 78.542675,25.89075 78.542675,26.8065 C78.542675,27.843425 77.65745,28.759175 76.039625,28.759175 C73.963925,28.759175 72.803975,27.5391 72.6199,26.013775 L70.025275,26.925825 L70.025275,26.92675 Z M88.035025,36.542125 L88.035025,28.75825 C88.828675,30.07175 90.538075,31.1392 92.796925,31.1392 C97.0991,31.1392 99.634525,27.7537 99.634525,23.384925 C99.634525,19.11235 97.285025,15.725925 92.8885,15.725925 C90.506625,15.725925 88.767625,16.885875 87.9749,18.351075 L87.9749,16.058 L85.195275,16.058 L85.195275,36.542125 L88.035025,36.542125 L88.035025,36.542125 Z M96.704125,23.384925 C96.704125,26.4069 95.024325,28.574175 92.369575,28.574175 C89.742575,28.574175 88.003575,26.4069 88.003575,23.384925 C88.003575,20.454525 89.742575,18.256725 92.369575,18.256725 C95.05485,18.256725 96.704125,20.454525 96.704125,23.384925 L96.704125,23.384925 Z M102.38085,26.803725 C102.38085,29.123625 104.30485,31.199325 107.2963,31.199325 C109.92145,31.199325 111.38665,29.795175 112.027675,28.757325 C112.027675,29.824775 112.120175,30.376075 112.1803,30.74145 L114.98675,30.74145 C114.92755,30.37515 114.80545,29.61295 114.80545,28.331825 L114.80545,20.974375 C114.80545,18.1041 113.0942,15.60105 108.6986,15.60105 C105.52585,15.60105 102.99135,17.55465 102.6861,20.362025 L105.434275,21.003975 C105.615575,19.292725 106.747775,18.042125 108.7615,18.042125 C110.99075,18.042125 111.935175,19.233525 111.935175,20.667275 C111.935175,21.187125 111.6919,21.645 110.806675,21.766175 L106.838425,22.34615 C104.303925,22.71245 102.38085,24.17765 102.38085,26.80465 L102.38085,26.803725 Z M107.693125,28.788775 C106.227925,28.788775 105.31125,27.752775 105.31125,26.652025 C105.31125,25.338525 106.227925,24.63645 107.44985,24.4533 L111.9361,23.782675 L111.9361,24.4533 C111.9361,27.658425 110.04355,28.788775 107.693125,28.788775 L107.693125,28.788775 Z M127.412275,15.9063 C127.099784,15.8484394 126.782863,15.8177995 126.465075,15.814725 C124.96935,15.814725 123.138775,16.364175 122.069475,18.6221 L122.069475,16.05985 L119.261175,16.05985 L119.261175,30.74145 L122.132375,30.74145 L122.132375,23.384925 C122.132375,20.149275 123.751125,18.867225 126.159825,18.867225 C126.5585,18.867225 126.98585,18.896825 127.4132,18.96065 L127.4132,15.9063 L127.412275,15.9063 Z M143.620125,16.058925 L139.651875,16.058925 L133.304525,22.561675 L133.304525,8.6395 L130.4657,8.6395 L130.4657,30.740525 L133.30545,30.740525 L133.30545,26.31625 L135.3497,24.272 L140.142125,30.742375 L143.744075,30.742375 L137.365275,22.256425 L143.620125,16.05985 L143.620125,16.058925 Z M149.358825,8.640425 L146.489475,8.640425 L146.489475,30.74145 L149.358825,30.74145 L149.358825,8.640425 Z M156.10485,21.89105 C156.22695,19.997575 157.69215,18.13555 160.10455,18.13555 C162.69825,18.13555 164.0728,19.78205 164.132925,21.89105 L156.10485,21.89105 Z M164.560275,25.706675 C164.0099,27.353175 162.819425,28.666675 160.4394,28.666675 C157.9678,28.666675 156.0734,26.835175 156.0142,24.210025 L167.063325,24.210025 C167.104932,23.9068749 167.125332,23.6011906 167.124407,23.2952 C167.124407,18.71645 164.589875,15.6029 160.072175,15.6029 C156.37865,15.6029 153.05235,18.74605 153.05235,23.3581 C153.05235,28.33275 156.5026,31.2021 160.4394,31.2021 C163.85635,31.2021 166.206775,29.156 167.0328,26.56045 L164.560275,25.706675 L164.560275,25.706675 Z M202.10695,30.74145 L202.10695,9.10015 L198.108175,9.10015 L190.41495,26.713075 L182.7837,9.101075 L178.7248,9.101075 L178.7248,30.74145 L181.685725,30.74145 L181.685725,13.89165 L189.011725,30.74145 L191.758975,30.74145 L199.146025,13.89165 L199.146025,30.74145 L202.10695,30.74145 L202.10695,30.74145 Z M206.2269,26.803725 C206.2269,29.123625 208.1509,31.199325 211.1405,31.199325 C213.76565,31.199325 215.23085,29.795175 215.8728,28.757325 C215.8728,29.824775 215.96345,30.376075 216.025425,30.74145 L218.833725,30.74145 C218.77175,30.37515 218.650575,29.61295 218.650575,28.331825 L218.650575,20.974375 C218.650575,18.1041 216.94025,15.60105 212.545575,15.60105 C209.369125,15.60105 206.836475,17.55465 206.531225,20.362025 L209.2794,21.003975 C209.461625,19.292725 210.5929,18.042125 212.6057,18.042125 C214.83495,18.042125 215.781225,19.233525 215.781225,20.667275 C215.781225,21.187125 215.5361,21.645 214.650875,21.766175 L210.682625,22.34615 C208.149975,22.71245 206.2269,24.17765 206.2269,26.80465 L206.2269,26.803725 Z M211.53825,28.788775 C210.072125,28.788775 209.1573,27.752775 209.1573,26.652025 C209.1573,25.338525 210.07305,24.63645 211.29405,24.4533 L215.78215,23.782675 L215.78215,24.4533 C215.78215,27.658425 213.888675,28.788775 211.53825,28.788775 L211.53825,28.788775 Z M222.039775,31.534175 C222.40515,34.677325 225.153325,37.000925 228.816325,37.000925 C234.340425,37.000925 236.171925,33.365675 236.171925,29.643475 L236.171925,16.058 L233.334025,16.058 L233.334025,18.103175 C232.601425,16.637975 231.07425,15.783275 228.816325,15.783275 C224.7861,15.783275 222.069375,18.9588 222.069375,22.927975 C222.069375,27.077525 224.907275,30.039375 228.816325,30.039375 C231.014125,30.039375 232.601425,28.971 233.302575,27.628825 L233.302575,29.734125 C233.302575,32.90965 231.89935,34.497875 228.816325,34.497875 C226.588,34.497875 225.0303,32.9374 224.81755,30.892225 L222.039775,31.5351 L222.039775,31.534175 Z M229.243675,27.628825 C226.648125,27.628825 225.0007,25.797325 225.0007,22.927975 C225.0007,20.08915 226.709175,18.227125 229.243675,18.227125 C231.7162,18.227125 233.424675,20.08915 233.424675,22.927975 C233.424675,25.765875 231.7162,27.628825 229.243675,27.628825 Z" id="Shape" fill="#000000" fill-rule="nonzero" mask="url(#mask-4)"></path>
                    </g>
                    <path d="M108.86325,0.653975 C110.651272,0.653975 112.10075,2.10345312 112.10075,3.891475 C112.10075,5.67949688 110.651272,7.128975 108.86325,7.128975 C107.075228,7.128975 105.62575,5.67949688 105.62575,3.891475 C105.62575,2.10345312 107.075228,0.653975 108.86325,0.653975" id="Path" fill="#000000" fill-rule="nonzero"></path>
                </g>
            </g>
        </g>
    </g>
</svg>