<?xml version="1.0" encoding="UTF-8"?>
<svg width="299px" height="179px" viewBox="0 0 299 179" version="1.1" xmlns="http://www.w3.org/2000/svg" xmlns:xlink="http://www.w3.org/1999/xlink">
    <!-- Generator: Sketch 63.1 (92452) - https://sketch.com -->
    <title>awards-obie</title>
    <desc>Created with Sketch.</desc>
    <defs>
        <rect id="path-1" x="0" y="0" width="299" height="179"></rect>
        <polygon id="path-3" points="169.060427 66 180.873418 51.2151296 180.873418 0 0.139240506 0 0.139240506 66"></polygon>
        <polygon id="path-5" points="0.0674871764 0.239582988 30.1358359 0.239582988 30.1358359 30.1907726 0.0674871764 30.1907726"></polygon>
        <polygon id="path-7" points="0.0361559501 0.1265992 23.5910287 0.1265992 23.5910287 29.9478734 0.0361559501 29.9478734"></polygon>
        <polygon id="path-9" points="0 0.181990923 26.2088686 0.181990923 26.2088686 28.8805005 0 28.8805005"></polygon>
    </defs>
    <g id="V2.0" stroke="none" stroke-width="1" fill="none" fill-rule="evenodd">
        <g id="awards-obie">
            <mask id="mask-2" fill="white">
                <use xlink:href="#path-1"></use>
            </mask>
            <g id="Mask"></g>
            <g id="Screen-Shot-2019-07-11-at-9.15.15-AM" mask="url(#mask-2)">
                <g transform="translate(59.000000, 57.500000)">
                    <mask id="mask-4" fill="white">
                        <use xlink:href="#path-3"></use>
                    </mask>
                    <g id="Mask" stroke="none" fill="none"></g>
                    <g id="Group-28" stroke="none" stroke-width="1" fill="none" fill-rule="evenodd" mask="url(#mask-4)">
                        <g transform="translate(1.139241, 1.000000)">
                            <path d="M56.4714507,46.6001197 C57.6865153,42.4557948 58.9013239,38.3114698 60.1002627,34.2216654 C58.995263,32.9093342 58.995263,32.9093342 58.9476535,32.2092706 L63.0763646,32.2092706 C63.4032316,32.9346747 62.9317446,33.3137585 62.48611,33.6163088 C61.6135262,34.2078433 61.2536398,35.0491993 60.9713107,36.0226332 C58.6643006,43.9790409 56.3204315,51.924698 53.9857772,59.8731708 C53.8905584,60.1969662 53.7774219,60.5153863 53.6543029,60.8924224 L48.2345057,60.8924224 C45.9812482,53.7671322 43.7359256,46.6676944 41.490603,39.5682566 C41.3851455,39.5754237 41.279688,39.5825907 41.1742305,39.5900136 C39.2122609,46.6605274 37.2505472,53.7307852 35.2681004,60.8745048 L29.8994961,60.8745048 C29.7533402,60.4757118 29.5718613,60.0147193 29.413931,59.5455359 C26.7035205,51.4918617 23.9913182,43.4389553 21.2957536,35.3804177 C21.0344136,34.5989574 20.7451735,33.8940305 20.0251447,33.3902919 C19.7376963,33.1888477 19.624048,32.7401415 19.3250812,32.2189973 L34.9609427,32.2189973 C35.4022259,33.1156418 34.5258026,33.3790295 34.0704414,34.0473534 C35.2327772,38.1878388 36.4278766,42.4450442 37.6229759,46.7022496 C37.7079562,46.6976423 37.7926805,46.6927789 37.8776608,46.6881716 C37.9813265,46.3820378 38.1039336,46.0810232 38.1853304,45.7692582 C38.8946087,43.0567999 39.639978,40.3525326 40.2829614,37.6244605 C40.6251862,36.1731405 40.1199118,34.8672084 39.0909336,33.817497 C38.3435166,33.0552341 38.3010265,33.0967004 38.2907879,32.1977522 L54.0436253,32.1977522 C54.3725399,33.0959325 53.5055874,33.3101749 53.1689938,33.9915531 C54.125534,38.1038824 55.1117661,42.3439382 56.0982541,46.583738 C56.222653,46.5891132 56.3470519,46.5947445 56.4714507,46.6001197" id="Fill-1" fill="#231F20"></path>
                            <path d="M134.105246,59.6330759 C134.414708,57.7484076 134.31309,34.3419688 133.986479,33.3984828 L131.855828,33.3984828 L129.770484,33.3984828 C129.455903,35.2818713 129.553681,58.7443663 129.857,59.6330759 L134.105246,59.6330759 Z M117.35389,60.9072683 C116.993492,59.8956957 117.929811,59.6870844 118.265125,59.037446 L118.265125,34.0509369 C117.333413,32.9367224 117.333413,32.9367224 117.344164,32.1890494 C117.708146,32.1665245 118.07955,32.1237784 118.450699,32.1235225 C123.26386,32.1191711 128.076765,32.0915269 132.889414,32.1376005 C134.500968,32.1529584 136.144005,32.1949366 137.714605,32.5120769 C141.710726,33.3188777 144.539137,35.7341609 146.144547,39.4246604 C148.4641,44.7564058 148.11266,50.096342 145.371534,55.1426866 C143.372449,58.8224356 140.059242,60.8565873 135.794102,60.9213464 C129.875173,61.011446 123.953941,60.9541099 118.033733,60.9569255 C117.825633,60.9571814 117.617534,60.9272336 117.35389,60.9072683 L117.35389,60.9072683 Z" id="Fill-3" fill="#231F20"></path>
                            <path d="M101.694224,33.4905533 L97.2488848,33.4905533 C96.9547813,35.1627709 97.0418093,45.5815593 97.3650927,46.5043121 C98.7196581,46.4720606 100.107499,46.6903985 101.654806,46.2995403 C101.737994,42.0303046 101.678098,37.818405 101.694224,33.4905533 M115.213001,60.903352 L101.650198,60.903352 L101.650198,47.9469293 L97.0325946,47.9469293 L97.0325946,59.0970089 C97.2911189,59.6969903 98.3846003,59.8467296 97.950996,60.8897859 L84.7460315,60.8897859 C84.2571389,59.887684 85.352156,59.6939187 85.6181034,58.9720982 L85.6181034,34.0598189 C85.2625684,33.4485751 84.394336,33.1990095 84.6961184,32.2066342 C85.0122349,32.1805258 85.3731451,32.1247255 85.7337994,32.1247255 C91.0553062,32.1252374 96.3768129,32.106552 101.697808,32.1518578 C103.955673,32.1710551 106.198436,32.4221565 108.35545,33.1611267 C112.320088,34.5192755 114.040939,38.5704293 112.20388,42.3400219 C111.336928,44.1182089 109.729981,45.089595 107.976623,45.8416194 C107.596003,46.0049249 107.196954,46.1254843 106.818126,46.4825551 L112.27555,46.4825551 C112.423754,47.6292771 112.565814,48.624468 112.679463,49.6232423 C112.982269,52.2809241 113.289938,54.93835 113.557166,57.5996153 C113.634211,58.3675095 113.871746,58.9756817 114.536487,59.4223401 C114.990312,59.7274501 115.466151,60.0788897 115.213001,60.903352" id="Fill-5" fill="#231F20"></path>
                            <path d="M43.7913163,2.1677653 L43.7913163,13.4808945 C45.3591003,13.3372982 46.8741555,13.8725205 48.2517577,13.1076979 L48.2517577,2.1677653 L43.7913163,2.1677653 Z M48.2453586,28.2697687 C48.5376703,25.814555 48.4173669,15.8488242 48.104834,14.9629302 C47.0868622,14.6002282 44.8272056,14.5841024 43.7913163,14.928375 L43.7913163,28.2697687 L48.2453586,28.2697687 Z M50.8234354,14.1766066 C51.8815936,14.3862417 52.9059644,14.4796688 53.8517541,14.8021844 C55.2078552,15.2647127 56.5977437,15.7441346 57.8133202,16.4797772 C61.8368298,18.9147697 60.8964154,25.7679694 57.40864,27.6669717 C55.5096377,28.7008133 53.5141366,29.4843213 51.3729916,29.5147811 C44.8627847,29.6082082 38.350786,29.5659741 31.8392992,29.5726291 C31.7596942,29.5726291 31.6800892,29.5250197 31.5515949,29.4843213 C31.1169668,28.6222321 32.0138672,28.3857207 32.4111244,27.7952101 L32.4111244,2.67764704 C32.2199188,2.0669152 31.0455526,1.91615197 31.6253127,0.81115223 L32.8181084,0.81115223 C37.9681187,0.81115223 43.1181291,0.791954876 48.2678835,0.819599066 C50.7435744,0.833165197 53.1888054,1.0842666 55.5081019,2.06819502 C57.8632334,3.06722536 59.048862,4.95880472 59.0040682,7.73320643 C58.9623459,10.3066758 57.7270601,12.1473182 55.3153604,12.9740843 C53.8799102,13.4660485 52.378933,13.7675749 50.8234354,14.1766066 L50.8234354,14.1766066 Z" id="Fill-7" fill="#231F20"></path>
                            <g id="Group-11" stroke-width="1" fill="none" transform="translate(0.000000, 0.016382)">
                                <mask id="mask-6" fill="white">
                                    <use xlink:href="#path-5"></use>
                                </mask>
                                <g id="Clip-10"></g>
                                <path d="M17.3364656,28.7810838 L17.3364656,1.72484393 C15.8784905,1.37903558 13.908074,1.41282293 12.870393,1.77475705 C12.5742418,3.81044455 12.7017122,27.8478364 13.0436811,28.7810838 L17.3364656,28.7810838 Z M30.1334223,15.3198987 C29.9967371,23.5637547 23.3127301,30.2462259 15.061963,30.1904256 C6.36402549,30.1318097 -0.00207331432,23.0403068 0.0680610218,15.1181984 C0.142034829,6.79064191 7.09378094,0.0940926349 15.3890859,0.241784284 C23.4919054,0.386148392 30.2826497,7.33072749 30.1334223,15.3198987 L30.1334223,15.3198987 Z" id="Fill-9" fill="#231F20" mask="url(#mask-6)"></path>
                            </g>
                            <path d="M103.975663,12.0391475 C103.210329,12.1730171 103.002742,11.6226929 102.717597,11.2433532 C100.700083,8.559307 98.6989505,5.8632305 96.6903953,3.17252925 C96.438526,2.83491177 96.1741144,2.50625306 95.908935,2.16505207 L90.4865781,2.16505207 L90.4865781,13.4484893 L92.8250719,13.4484893 C93.7547358,11.6173176 94.7117879,9.73264933 95.6944365,7.79678807 C96.032054,7.76376862 96.3543136,7.73228496 96.6171894,7.70668849 C96.9865465,8.06913454 97.0717828,19.3372139 96.7700003,21.2725632 C96.4753849,21.2909927 96.1602923,21.310702 95.7604754,21.3355305 C94.7747553,19.1367935 93.8059288,16.9761952 92.8166251,14.7702912 L90.4696845,14.7702912 L90.4696845,28.2435067 L95.6527143,28.2435067 C96.438526,27.0471275 97.3029189,25.7460588 98.1519539,24.4355194 C99.7463582,21.9746745 101.325405,19.5046148 102.929024,17.0496571 C103.134307,16.7355884 103.446584,16.4906301 103.782154,16.1366309 C104.138969,17.2511013 104.250826,26.7345946 104.003564,29.3671919 C103.120741,29.6508008 79.7007363,29.7204232 78.3088001,29.4437253 C78.3525701,28.7001478 78.3525701,28.7001478 79.1330066,27.790961 L79.1330066,2.77399217 C78.963046,2.12870508 77.9722065,1.8927056 78.3064964,1.033432 C79.1993014,0.761085529 102.272986,0.681480498 103.975663,0.957666442 L103.975663,12.0391475 Z" id="Fill-12" fill="#231F20"></path>
                            <g id="Group-16" stroke-width="1" fill="none" transform="translate(149.739367, 31.500044)">
                                <mask id="mask-8" fill="white">
                                    <use xlink:href="#path-7"></use>
                                </mask>
                                <g id="Clip-15"></g>
                                <path d="M8.79551126,28.7724578 C10.074823,28.6646967 11.366421,28.6902931 12.5922361,28.4197384 C14.2206837,28.060108 14.8337192,27.1122706 14.7722877,25.4456842 C14.7054809,23.6349897 14.0059293,22.1260776 12.4038461,21.1813118 C11.4565206,20.6227968 10.4436682,20.1674355 9.43619098,19.720777 C6.97611395,18.6306233 4.61407142,17.3889384 2.59988496,15.5695411 C1.56169201,14.6316863 0.849086203,13.4911074 0.476913485,12.1506202 C-0.104382417,10.0573406 -0.11590083,7.95305454 0.473329979,5.85977497 C1.20820472,3.24919069 3.21317645,1.98395703 5.58724933,1.13261834 C7.94622028,0.286398937 10.3917073,0.00995702801 12.8771248,0.16967902 C14.871602,0.297661385 16.860192,0.524702101 18.8495499,0.725122484 C19.1782086,0.758397899 19.4979086,0.88074904 19.8603546,0.97161652 L19.8603546,9.23902134 C19.1009073,9.66366683 18.8042441,9.10822337 18.4840323,8.68536963 C17.0211938,6.75360381 15.5729454,4.81083151 14.117018,2.87369043 C13.811908,2.4674744 13.4973274,2.06842539 13.1264345,1.58746766 C12.3892561,1.58746766 11.6305766,1.53601875 10.8816238,1.59975397 C9.79914896,1.69164531 8.88817049,2.1285771 8.54389793,3.2563577 C8.19527396,4.39847233 8.70669149,5.85286393 9.68473273,6.55215957 C10.09658,6.84651901 10.5573165,7.07944691 11.0137016,7.30418395 C13.5677177,8.56250656 16.127109,9.80956673 18.6841967,11.0614902 C18.7986129,11.1175465 18.9056062,11.1894726 19.0215582,11.2416894 C25.9807273,14.3711142 24.0364192,24.6112392 19.5201775,27.3869207 C17.1345862,28.8533427 14.654288,29.7963167 11.874511,29.9120128 C8.00176463,30.0727586 4.15615052,29.6601435 0.327942012,29.3465867 C-0.00430020747,27.8046552 0.0817039419,16.8572996 0.496878734,15.8260177 C0.83372832,16.2332576 1.14728511,16.5358079 1.37099829,16.8944145 C3.59993916,20.4630748 5.81352215,24.0414617 8.03324829,27.6154972 C8.2341806,27.9385247 8.45123869,28.2510577 8.79551126,28.7724578" id="Fill-14" fill="#231F20" mask="url(#mask-8)"></path>
                            </g>
                            <g id="Group-19" stroke-width="1" fill="none" transform="translate(0.000000, 32.011973)">
                                <mask id="mask-10" fill="white">
                                    <use xlink:href="#path-9"></use>
                                </mask>
                                <g id="Clip-18"></g>
                                <path d="M4.59085542,21.4490765 L9.94026232,21.4490765 C9.14984323,18.977993 8.39986657,16.6331001 7.64963395,14.2879512 C7.54520034,14.2841118 7.44076673,14.2802723 7.33633312,14.2766888 C6.43815288,16.6228615 5.53997264,18.9687783 4.59085542,21.4490765 M26.2088686,28.8805005 L10.8632711,28.8805005 C10.392808,27.9585156 11.4005411,27.7534878 11.6949005,27.0342269 C11.2930359,25.7526115 10.8525206,24.348389 10.3940878,22.8868304 L4.12627943,22.8868304 C3.59950402,24.2319251 3.06172212,25.6059437 2.55491196,26.9001014 C2.67393555,27.69436 3.84830174,27.8566416 3.44234168,28.8715418 L-0.000127982365,28.8715418 C0.138092972,28.4663496 0.14935542,28.0235306 0.369997018,27.8586893 C1.14684997,27.2771374 1.40307067,26.4316859 1.71816325,25.6008244 C4.77489406,17.5422868 7.83239276,9.48400519 10.8906594,1.42623548 C11.0411666,1.03025804 11.2039602,0.638887967 11.386463,0.181990923 L15.0096438,0.181990923 C15.3088666,0.95884388 15.6211435,1.73979227 15.9111516,2.52867557 C18.7974099,10.378346 21.6711259,18.2326237 24.5801651,26.0738473 C24.8069498,26.685603 25.2789488,27.2052114 25.6224534,27.7760127 C25.8036765,28.0770272 25.9536718,28.3967272 26.2088686,28.8805005" id="Fill-17" fill="#231F20" mask="url(#mask-10)"></path>
                            </g>
                            <path d="M64.2233938,46.1873254 C64.1225437,46.1888612 64.0216936,46.190397 63.9208435,46.1921887 C63.0254788,48.5903223 62.1298582,50.9887118 61.1978907,53.4846239 L66.5498572,53.4846239 C65.7515032,50.980265 64.9874485,48.5836672 64.2233938,46.1873254 M66.9102555,54.8524994 L60.7130935,54.8524994 C60.1632812,56.234197 59.6045102,57.6389315 59.0608411,59.0055272 C59.3170618,59.6733391 60.3258188,59.8399722 59.9838499,60.8341392 C58.9244119,61.0931755 57.8107094,60.9198874 56.4610074,60.9219351 C56.6860004,60.421524 56.7441044,60.00123 56.9852231,59.8100243 C57.7032042,59.2399908 57.9563533,58.4360056 58.2558321,57.6471223 C61.3760421,49.4283508 64.4916448,41.2075316 67.6100631,32.9879921 C67.6996508,32.7517367 67.8033165,32.5206005 67.9325787,32.2096034 L71.4753865,32.2096034 C71.6177029,32.5472209 71.8112122,32.9590681 71.9676067,33.3842255 C75.0028365,41.6339688 78.0268038,49.8883194 81.0809749,58.1311516 C81.2939376,58.7055365 81.7352208,59.1939172 82.0546648,59.7314431 C82.249198,60.059078 82.4140393,60.4041184 82.6779389,60.9027377 L67.3389965,60.9027377 C67.0018909,59.9270002 67.9643183,59.7314431 68.2666127,59.064655 C67.8353121,57.7254475 67.3837903,56.3225048 66.9102555,54.8524994" id="Fill-20" fill="#231F20"></path>
                            <path d="M75.4973347,29.518851 L62.0735204,29.518851 C62.1224097,28.7251043 62.1224097,28.7251043 63.1234877,27.6597791 L63.1234877,2.83196818 C62.9696529,2.06637767 61.6742154,1.98421299 62.1331602,0.886380265 L75.4574042,0.886380265 C75.4786493,1.69062145 75.4786493,1.69062145 74.5402826,2.65740023 L74.5402826,27.6280395 C74.7975272,28.2802376 75.8316247,28.4798901 75.4973347,29.518851" id="Fill-22" fill="#231F20"></path>
                            <path d="M177.909763,34.5536772 C177.901784,33.2131899 176.908641,32.1647584 175.632913,32.1509363 C174.380989,32.1376261 173.371209,33.2167734 173.376308,34.5631479 C173.381959,35.9251362 174.367679,36.9694723 175.640336,36.9613293 C176.905058,36.9530906 177.917398,35.8790626 177.909763,34.5536772 M178.562947,34.6041023 C178.55987,36.2420206 177.315625,37.4739788 175.657997,37.4801464 C173.934587,37.4865211 172.701349,36.2351095 172.724898,34.5029962 C172.746655,32.9019368 174.08407,31.6108507 175.685386,31.644894 C177.278254,31.6786814 178.566013,33.0030429 178.562947,34.6041023" id="Fill-24" fill="#231F20"></path>
                            <path d="M174.808655,36.297181 C174.369164,35.462224 174.339216,34.3638794 174.696799,32.9102557 C175.361283,32.980646 176.046757,33.0533399 176.663632,33.1188669 C176.962343,34.185216 176.962343,34.185216 176.275845,35.0107022 C176.433519,35.3426885 176.606296,35.7074382 176.829497,36.1776454 C175.883195,36.2406128 175.944115,35.2658991 175.28091,34.9892012 C175.135778,35.3902979 174.988343,35.7995855 174.808655,36.297181" id="Fill-26" fill="#231F20"></path>
                        </g>
                    </g>
                </g>
            </g>
        </g>
    </g>
</svg>