<?xml version="1.0" encoding="UTF-8"?>
<svg width="298px" height="180px" viewBox="0 0 298 180" version="1.1" xmlns="http://www.w3.org/2000/svg" xmlns:xlink="http://www.w3.org/1999/xlink">
    <!-- Generator: Sketch 63.1 (92452) - https://sketch.com -->
    <title>awards-sandu</title>
    <desc>Created with Sketch.</desc>
    <defs>
        <rect id="path-1" x="0" y="0.5" width="298" height="179"></rect>
        <polygon id="path-3" points="0 0.1728 21.5195614 0.1728 21.5195614 31.7592907 0 31.7592907"></polygon>
    </defs>
    <g id="V2.0" stroke="none" stroke-width="1" fill="none" fill-rule="evenodd">
        <g id="awards-sandu">
            <mask id="mask-2" fill="white">
                <use xlink:href="#path-1"></use>
            </mask>
            <g id="Mask"></g>
            <g id="Group-32" mask="url(#mask-2)">
                <g transform="translate(76.183333, 72.000000)">
                    <path d="M96.8402526,5.57050105 C96.5886316,7.26212211 96.6548211,25.6741642 96.9160421,26.6318905 C98.8615579,26.7455747 100.818442,26.69328 102.765221,26.3249432 C105.488842,25.8095747 107.151158,24.1470063 107.865347,21.5259537 C108.128589,20.5598905 108.283958,19.5539116 108.383747,18.5555116 C108.640421,15.9925642 108.592168,13.4298695 107.977263,10.9171958 C107.321179,8.23677474 105.683368,6.51306947 102.921095,5.90094316 C100.924547,5.45858526 98.9178947,5.55736421 96.8402526,5.57050105 M90.0977684,31.2830905 L90.0977684,5.62431158 C89.0761263,5.57934316 88.1388632,5.53791158 87.1467789,5.49420632 L87.1467789,0.867258947 C87.4691368,0.837701053 87.7508211,0.788690526 88.0322526,0.789191913 C92.2772211,0.795764211 96.5224421,0.776311579 100.766653,0.833658947 C102.909979,0.862964211 105.035368,1.13555368 107.108716,1.73328 C111.163958,2.90271158 113.762779,5.50835368 114.836968,9.59290105 C115.870232,13.5213221 115.922274,17.4894063 115.069642,21.4466274 C113.947958,26.6521011 110.620295,29.6947958 105.478484,30.7427116 C103.719916,31.1009432 101.901979,31.2641432 100.105516,31.3177011 C97.0398316,31.4089011 93.9696,31.3442274 90.9011368,31.3417011 C90.6927158,31.3414484 90.4842947,31.3123958 90.0977684,31.2830905" id="Fill-1" fill="#231F20"></path>
                    <path d="M76.7022568,19.8488589 L76.7022568,10.2774063 L76.7022568,0.825701053 C77.69712,0.811806316 78.6063411,0.793869474 79.5158147,0.787301053 C80.3916884,0.780732632 81.2675621,0.785785263 82.1143832,0.785785263 C82.37232,1.81197474 82.4150147,29.8520589 82.1613726,31.3435958 L80.0844884,31.3435958 L77.8653726,31.3435958 C75.4615832,28.21248 73.0588042,25.0831326 70.6565305,21.9530274 C68.2582989,18.8277221 65.8605726,15.7021642 63.3751832,12.4629221 L63.3751832,31.2635116 L57.7925305,31.2635116 L57.7925305,5.62822737 L54.8448253,5.62822737 C54.79632,3.99496421 54.8241095,2.50014316 54.8190568,0.87648 C56.0205726,0.697869474 57.1864674,0.810795789 58.3425095,0.790585263 C59.5182568,0.769869474 60.6947621,0.785785263 62.0069305,0.785785263 C66.8392674,7.05433263 71.7049516,13.36608 76.7022568,19.8488589" id="Fill-3" fill="#231F20"></path>
                    <path d="M138.518274,0.858568421 L144.987411,0.858568421 C145.019242,1.18976842 145.076589,1.50985263 145.076842,1.83018947 C145.081642,7.92669474 145.1016,14.0229474 145.062442,20.1192 C145.054105,21.4136842 144.939411,22.7298947 144.6792,23.9958316 C143.807116,28.2357474 140.901347,30.8904 136.612926,31.5464842 C134.182105,31.9183579 131.757853,31.9544842 129.337137,31.5204632 C125.228084,30.7832842 121.821853,28.3034526 121.345389,23.1002526 C121.238526,21.9303158 121.171579,20.7528 121.167789,19.5785684 C121.149853,13.8185684 121.1592,8.05831579 121.158695,2.29831579 L121.158695,0.864378947 L127.893853,0.864378947 C127.911537,1.32164211 127.943368,1.76905263 127.943368,2.21671579 C127.946147,8.22909474 127.934274,14.2414737 127.955495,20.2536 C127.959032,21.1729263 128.034568,22.1061474 128.2104,23.0070316 C128.554737,24.7676211 129.6168,25.9307368 131.375621,26.3976 C132.576632,26.7166737 133.798358,26.7348632 134.994063,26.4175579 C136.563411,26.0012211 137.727789,25.0700211 138.081979,23.4241263 C138.318695,22.3246737 138.493263,21.1883368 138.500842,20.0671579 C138.540758,14.1391579 138.518779,8.21090526 138.518274,2.28265263 L138.518274,0.858568421 Z" id="Fill-5" fill="#231F20"></path>
                    <path d="M34.7557895,20.60208 L42.7609263,20.60208 C41.3302737,16.2565642 39.9329684,12.0126063 38.5568842,7.83306947 C37.3083789,12.0272589 36.0472421,16.2638905 34.7557895,20.60208 M33.3021474,5.53765895 L30.5540211,5.53765895 L30.5540211,0.790964211 C34.4738526,0.780606316 38.3636211,0.788943158 42.3716211,0.784901053 C46.0203789,10.9199747 49.6549895,21.0151326 53.2911158,31.1150905 C52.3657263,31.3922274 47.9343158,31.4455326 46.4005895,31.2078063 C45.7379368,29.27088 45.0611368,27.2922695 44.3696842,25.2707116 L33.3476211,25.2707116 C32.7458526,27.2000589 32.1258947,29.1877642 31.4632421,31.3126484 C29.3547789,31.3775747 27.2341895,31.3308379 24.9226105,31.3389221 C26.2476632,26.9062484 27.7104,22.68528 29.0834526,18.4370274 C30.4504421,14.2077221 31.8454737,9.98751158 33.3021474,5.53765895" id="Fill-7" fill="#231F20"></path>
                    <g id="Group-11" stroke-width="1" fill="none" transform="translate(0.000000, 0.079832)">
                        <mask id="mask-4" fill="white">
                            <use xlink:href="#path-3"></use>
                        </mask>
                        <g id="Clip-10"></g>
                        <path d="M19.3254063,1.66911158 C19.2599747,3.18995368 19.1922695,4.76991158 19.1235537,6.36906947 C18.5816589,6.59946947 18.1802274,6.27786947 17.7722274,6.14448 C15.4305853,5.37925895 13.0406905,4.93841684 10.5805642,5.23450105 C9.72540632,5.33757474 8.83462737,5.59020632 8.08026947,5.99694316 C6.07589053,7.07795368 5.90132211,9.66186947 7.73744842,11.0083958 C8.46906947,11.5447326 9.34292211,11.9226695 10.2001011,12.2450274 C12.1231326,12.9688168 14.0992168,13.5539116 16.0068379,14.3138274 C16.9286905,14.6809011 17.7979958,15.2435116 18.5960589,15.8437642 C20.05728,16.9429642 20.98368,18.4195958 21.3032589,20.2443537 C21.6266274,22.0910905 21.6326905,23.9337853 21.0079326,25.7166063 C20.1477221,28.1721853 18.3742484,29.75088 15.9987537,30.7139116 C13.4390905,31.7514695 10.7606905,31.8729853 8.06208,31.6867958 C5.41096421,31.5041432 2.83690105,30.9352168 0.294922105,29.8092379 C0.394964211,28.0302063 0.495006316,26.2549642 0.601364211,24.3627537 C1.14629053,24.6035116 1.56338526,24.7823747 1.97618526,24.9708379 C4.33248,26.0478063 6.80826947,26.6728168 9.38940632,26.8089853 C10.6088589,26.8731537 11.8242695,26.6874695 12.9578274,26.17968 C14.1090695,25.6640589 14.8730274,24.8392168 14.9791326,23.5207326 C15.0842274,22.2166484 14.5766905,21.1702484 13.4499537,20.5664589 C12.3479747,19.9760589 11.1633853,19.5294063 9.99117474,19.0830063 C8.38443789,18.4711326 6.72439579,17.99088 5.14216421,17.32368 C2.83538526,16.3510484 1.05306947,14.76048 0.392437895,12.2690274 C-0.787604211,7.81942737 0.501069474,2.51492211 6.90856421,0.780101053 C11.0158484,-0.331983158 15.0698274,0.196269474 19.0649432,1.45008 C19.1369432,1.47256421 19.1905011,1.55315368 19.3254063,1.66911158" id="Fill-9" fill="#231F20" mask="url(#mask-4)"></path>
                    </g>
                    <path d="M76.3144168,42.7798737 C77.0634695,42.7798737 77.68368,42.8412632 78.2851958,42.7619368 C78.8326484,42.6896842 79.2014905,42.1897263 79.2037734,41.7299368 C79.2060379,41.2122947 78.7874274,40.7229474 78.17808,40.6645895 C77.5775747,40.6072421 76.9674695,40.6522105 76.3144168,40.6522105 L76.3144168,42.7798737 Z M76.3429642,46.3445053 C77.0819116,46.3445053 77.7486063,46.4086737 78.3966063,46.3260632 C79.0087326,46.2482526 79.3293221,45.7326316 79.2808168,45.144 C79.2353432,44.5884632 78.9170274,44.2042105 78.3291537,44.1559579 C77.6783747,44.1026526 77.0200168,44.1438316 76.3429642,44.1438316 L76.3429642,46.3445053 Z M74.9196379,47.7157895 L74.9196379,39.3802105 C76.2613642,39.3243789 77.6041011,39.1917474 78.9064168,39.4423579 C80.7086905,39.7889684 81.1523116,41.7069474 79.8272589,43.3144421 C80.0144589,43.5589895 80.2342484,43.8010105 80.4030063,44.0746105 C81.3607326,45.6282947 80.3997221,47.5884632 78.5853221,47.7018947 C77.4189221,47.7749053 76.2444379,47.7157895 74.9196379,47.7157895 L74.9196379,47.7157895 Z" id="Fill-12" fill="#231F20"></path>
                    <path d="M128.014838,39.4131284 L129.331301,39.4131284 C130.430248,41.1214232 131.533491,42.8367916 132.636733,44.5519074 C132.714543,44.5395284 132.792606,44.5271495 132.870669,44.5147705 L132.870669,39.4184337 C133.384775,39.39216 133.74048,39.3737179 134.02848,39.3590653 C134.338206,39.6788968 134.399091,45.66096 134.173491,47.6211284 C134.001954,47.6509389 133.808438,47.7052547 133.612648,47.7125811 C133.407259,47.7204126 133.199848,47.6832758 132.941912,47.6615495 C132.38208,46.7869389 131.819975,45.90576 131.254585,45.0263495 C130.715217,44.1871074 130.172564,43.3501389 129.459891,42.2466442 L129.459891,47.6132968 L128.014838,47.6132968 L128.014838,39.4131284 Z" id="Fill-14" fill="#231F20"></path>
                    <path d="M144.914501,41.8474358 C144.498669,41.8684042 144.093196,41.8888674 143.66928,41.9103411 C143.460859,41.6577095 143.289575,41.4230147 143.091006,41.2143411 C142.689069,40.7916884 142.22928,40.5898358 141.623722,40.7830989 C141.042417,40.9682779 140.617743,41.3416674 140.580354,41.9161516 C140.509364,43.0004463 140.489406,44.0983832 140.582627,45.1791411 C140.649322,45.9529516 141.51408,46.4824674 142.254291,46.3697937 C143.095301,46.2422147 143.536648,45.5937095 143.490164,44.4821305 C143.051848,44.4364042 142.603175,44.3896674 142.009996,44.3277726 C141.985238,43.9581726 141.959722,43.5784674 141.929406,43.1254989 L145.038038,43.1254989 C145.038038,43.8803621 145.117364,44.5905095 145.022122,45.2764042 C144.808648,46.8131621 143.428269,47.8966989 141.903891,47.8153516 C140.317112,47.73072 139.136564,46.6012042 139.056733,45.0151832 C139.006459,44.0104674 138.999891,42.9976674 139.063554,41.9942147 C139.162333,40.4380042 140.317112,39.3554779 141.848564,39.2905516 C143.506838,39.22032 144.594164,40.1030147 144.914501,41.8474358" id="Fill-16" fill="#231F20"></path>
                    <path d="M64.1123621,39.3958737 L65.4214989,39.3958737 C65.4578779,39.7614316 65.5154779,40.0858105 65.5182568,40.4109474 C65.52912,41.7135158 65.5086568,43.0165895 65.5313937,44.3189053 C65.53872,44.7324632 65.57232,45.1720421 65.7208674,45.5497263 C65.9598568,46.1583158 66.7536253,46.4882526 67.4152674,46.3493053 C68.1046989,46.2048 68.5948042,45.7028211 68.6258779,44.928 C68.6764042,43.6693895 68.6455832,42.4072421 68.6483621,41.1466105 C68.6493726,40.6064842 68.6486147,40.0663579 68.6486147,39.4251789 C69.1313937,39.3925895 69.5297937,39.3655579 69.9986779,39.3339789 C70.0466779,39.6861474 70.1153937,39.9642947 70.1174147,40.2429474 C70.1277726,41.7557053 70.1315621,43.2687158 70.1184253,44.7814737 C70.0979621,47.1698526 68.0723621,48.1447579 66.2324463,47.6917895 C65.0662989,47.4050526 64.1810779,46.5079579 64.1330779,45.3079579 C64.0560253,43.3844211 64.1123621,41.4553263 64.1123621,39.3958737" id="Fill-18" fill="#231F20"></path>
                    <path d="M112.259899,47.6636211 C112.006509,47.6850947 111.804909,47.7161684 111.603309,47.7151579 C111.444152,47.7144 111.284741,47.6742316 111.051562,47.6408842 L111.051562,39.4116632 C111.447941,39.3929684 111.804909,39.3760421 112.311183,39.3520421 C112.348825,40.5277895 112.383688,41.6320421 112.421078,42.8004632 L115.384952,42.8004632 L115.384952,39.4306105 C115.913204,39.3992842 116.299983,39.3760421 116.771646,39.348 L116.771646,47.6540211 C116.383099,47.6752421 116.026383,47.6946947 115.623183,47.7166737 C115.167688,46.5808421 115.603478,45.4237895 115.312194,44.2429895 L112.542594,44.2429895 C112.125752,45.2800421 112.538552,46.4320421 112.259899,47.6636211" id="Fill-20" fill="#231F20"></path>
                    <path d="M106.524126,40.2510821 C106.268716,40.6163874 106.057516,40.9182821 105.804884,41.2797979 C105.519916,41.1741979 105.266526,41.0496505 104.998484,40.9880084 C104.5152,40.8768505 104.022063,40.7267874 103.534989,40.7341137 C103.002947,40.7424505 102.577263,41.0410611 102.468379,41.6243874 C102.379453,42.1011032 102.668716,42.4861137 103.3248,42.6829137 C103.721684,42.8021558 104.146358,42.8299453 104.559158,42.8963874 C105.905432,43.1128926 106.712589,43.9753768 106.750484,45.2392926 C106.789137,46.5411032 106.069389,47.4189979 104.722863,47.7120505 C103.201516,48.0432505 101.806484,47.6625347 100.607495,46.5360505 C100.854063,46.2364295 101.105179,45.9307453 101.384589,45.5907032 C101.825684,45.7988716 102.189979,45.9931453 102.570695,46.1457347 C103.2528,46.4193347 103.946274,46.4973979 104.650358,46.1997979 C105.034611,46.0373558 105.272842,45.7751242 105.273853,45.3476716 C105.275116,44.8840926 105.087411,44.5187874 104.612968,44.4010611 C104.167326,44.2909137 103.709305,44.2269979 103.255326,44.1552505 C101.759747,43.91904 100.912421,42.9787453 100.985937,41.6291874 C101.060211,40.2649768 101.978021,39.40704 103.471074,39.30624 C104.634947,39.2276716 105.257179,39.4103242 106.524126,40.2510821" id="Fill-22" fill="#231F20"></path>
                    <path d="M55.7461642,43.1387116 C56.4146274,43.1387116 56.9977011,43.1793853 57.5724379,43.1281011 C58.2487326,43.0677221 58.6529432,42.6001011 58.6761853,41.9662484 C58.6994274,41.3323958 58.33968,40.8261221 57.6573221,40.7359326 C57.0515116,40.6561011 56.4265011,40.7192589 55.7461642,40.7192589 L55.7461642,43.1387116 Z M55.7401011,44.6282274 C55.6923537,45.6822063 55.6491537,46.6343747 55.6029221,47.6539958 C55.1641011,47.6759747 54.8003116,47.6944168 54.4499116,47.7121011 C54.2089011,46.7639747 54.1454905,41.2566063 54.3574484,39.37248 C55.6153011,39.33408 56.9082695,39.2214063 58.1772379,39.4338695 C59.4093221,39.6405221 60.1343747,40.7149642 60.1088589,42.0190484 C60.0846063,43.2511326 59.3446484,44.2022905 58.1272168,44.4263747 C57.3928168,44.5615326 56.6329011,44.5582484 55.7401011,44.6282274 L55.7401011,44.6282274 Z" id="Fill-24" fill="#231F20"></path>
                    <path d="M90.5868632,46.3470568 L90.5868632,47.7034358 C88.8434526,47.7443621 87.1414737,47.7309726 85.4597053,47.7160674 C85.1696842,46.8118989 85.0820211,41.5551411 85.3136842,39.4456674 L86.6119579,39.4456674 L86.6119579,46.3470568 L90.5868632,46.3470568 Z" id="Fill-26" fill="#231F20"></path>
                    <path d="M121.728152,39.3952421 L123.009246,39.3952421 L123.009246,47.6560421 C122.595941,47.6744842 122.203604,47.6924211 121.728152,47.7138947 L121.728152,39.3952421 Z" id="Fill-28" fill="#231F20"></path>
                    <path d="M96.0707621,47.6617768 L94.8247832,47.6617768 L94.8247832,39.4032505 C95.2509726,39.3825347 95.6152674,39.3651032 96.0707621,39.3428716 L96.0707621,47.6617768 Z" id="Fill-30" fill="#231F20"></path>
                </g>
            </g>
        </g>
    </g>
</svg>