<?xml version="1.0" encoding="UTF-8"?>
<svg width="298px" height="179px" viewBox="0 0 298 179" version="1.1" xmlns="http://www.w3.org/2000/svg" xmlns:xlink="http://www.w3.org/1999/xlink">
    <!-- Generator: Sketch 63.1 (92452) - https://sketch.com -->
    <title>awards-awwwards</title>
    <desc>Created with Sketch.</desc>
    <defs>
        <rect id="path-1" x="0" y="0" width="298" height="179"></rect>
    </defs>
    <g id="V2.0" stroke="none" stroke-width="1" fill="none" fill-rule="evenodd">
        <g id="awards-awwwards">
            <mask id="mask-2" fill="white">
                <use xlink:href="#path-1"></use>
            </mask>
            <g id="Mask"></g>
            <g id="Awwards-logo" mask="url(#mask-2)" fill="#000000" fill-rule="nonzero">
                <g transform="translate(3.500000, 69.500000)">
                    <path d="M0.854694561,15.0027782 C1.56719665,11.2994812 4.84311297,8.73533054 9.40117155,8.73533054 C14.6716653,8.73533054 18.8022762,11.0143598 18.8022762,18.1365021 L18.8022762,31.3824268 L14.2442845,31.3824268 L13.6747113,28.5338243 C12.1081841,30.5276653 9.97141423,31.8104772 6.83769038,31.8104772 C2.99079498,31.8112134 0,29.3892552 0,24.9741255 C0,20.5583264 3.98841841,17.7097238 9.54336402,17.7097238 L13.2473305,17.7097238 L13.2473305,16.7122343 C13.2473305,14.1480837 11.395682,13.436251 9.25891213,13.436251 C7.69238494,13.436251 6.12518828,14.0058243 5.41342259,16.0004017 L0.854694561,15.0027782 Z M8.11909623,27.1102259 C10.6831799,27.1102259 13.2473305,25.4009038 13.2473305,22.5523013 L13.2473305,22.125523 L9.68629289,22.125523 C7.26507113,21.9825941 5.84080287,22.9796151 5.84080287,24.9741255 C5.84006695,25.9710795 6.69476151,27.1102259 8.11909623,27.1102259 Z" id="logo-a1"></path>
                    <path d="M108.251715,15.0027782 C108.964218,11.2994812 112.240803,8.73533054 116.798126,8.73533054 C122.068017,8.73533054 126.198628,11.0143598 126.198628,18.1365021 L126.198628,31.3824268 L121.640636,31.3824268 L121.070996,28.5338243 C119.504536,30.5276653 117.367766,31.810477 114.233975,31.810477 C110.387816,31.810477 107.396954,29.3885188 107.396954,24.9733891 C107.396954,20.55759 111.385439,17.7089874 116.939715,17.7089874 L120.643682,17.7089874 L120.643682,16.7114979 C120.643682,14.1473473 118.791364,13.4355146 116.655197,13.4355146 C115.088067,13.4355146 113.52087,14.0050879 112.809038,15.9996653 L108.251715,15.0027782 Z M115.517389,27.1102259 C118.08087,27.1102259 120.645021,25.4009038 120.645021,22.5523013 L120.645021,22.125523 L116.941054,22.125523 C114.519766,22.125523 113.095498,22.9796151 113.095498,24.9741255 C113.23836,25.9710795 114.092452,27.1102259 115.517389,27.1102259 Z" id="logo-a2"></path>
                    <path d="M131.185272,31.5253556 L131.185272,9.02045188 L136.740887,9.02045188 L136.740887,12.723749 C138.307347,10.0180753 140.870828,8.73533054 143.29205,8.73533054 C144.289674,8.73533054 145.144368,8.87825941 145.99846,9.1627113 L145.000904,14.2903431 C144.289071,13.8629623 143.577238,13.577841 142.721874,13.577841 C139.445891,13.577841 136.740218,16.2841172 136.740218,23.4062594 L136.740218,31.3824937 L131.185272,31.5253556 L131.185272,31.5253556 Z" id="logo-r"></path>
                    <path d="M157.820854,8.736 C160.099883,8.736 162.235983,9.87521339 163.233607,11.1579582 L163.233607,0.0473305439 L168.789155,0.0473305439 L168.789155,31.5254226 L163.233607,31.5254226 L163.233607,29.2463933 C162.521774,30.3856736 160.527197,31.9527364 157.820854,31.9527364 C151.126695,31.9527364 147.707849,27.2525523 147.707849,20.4155983 C147.707247,13.5785105 151.126695,8.736 157.820854,8.736 Z M158.675615,27.1102259 C161.524218,27.1102259 163.80318,24.6884017 163.80318,20.273272 C163.80318,15.8580753 161.524218,13.436251 158.675615,13.436251 C155.827013,13.436251 153.547983,15.8581423 153.547983,20.273272 C153.547983,24.6884017 155.827013,27.1102259 158.675615,27.1102259 Z" id="logo-d"></path>
                    <path d="M188.729372,12.2970377 L185.453389,15.2878996 C184.455766,13.8636318 182.888569,13.2939916 181.749423,13.2939916 C180.610276,13.2939916 179.613322,14.0065607 179.613322,15.1463096 C179.613322,16.144 180.468084,16.8558326 181.749423,17.282477 C184.883749,18.4216234 189.868452,19.4192469 189.868452,24.119431 C189.868452,28.2501757 186.734728,31.5260921 181.892218,31.5260921 C177.191364,31.5260921 174.058912,28.2501757 173.061356,25.5443682 L177.477155,23.1225439 C178.33118,25.2586444 179.756117,26.825841 182.035146,26.825841 C183.744536,26.825841 184.883749,25.9710795 184.883749,24.4045523 C184.883749,22.5523013 182.035146,22.125523 179.328134,20.9863766 C176.906912,19.9887531 174.770142,18.4214895 174.770142,15.0033808 C174.770142,11.5851381 177.618745,8.45148117 181.891615,8.45148117 C184.741556,8.59380753 187.44723,10.1602678 188.729372,12.2970377 Z" id="logo-s"></path>
                    <polygon id="logo-w2" points="73.9250879 9.02045188 69.9366695 24.5468117 66.091113 9.02045188 60.9635481 9.02045188 57.2601841 24.5468117 54.1265272 15.5730209 53.6991464 16.5693054 51.9897573 22.4093724 54.8382929 31.5253556 59.6814728 31.5253556 63.5270293 16.9978912 67.3725188 31.5253556 72.3584937 31.5253556 79.4799665 9.02045188"></polygon>
                    <polygon id="logo-w3" points="100.560669 9.02045188 96.5729205 24.5468117 92.7266946 9.02045188 87.5991297 9.02045188 83.8957657 24.5468117 80.7621088 15.5730209 80.334728 16.5693054 78.4830795 22.4093724 81.4739414 31.5253556 86.3169874 31.5253556 90.1625439 16.9978912 94.0087699 31.5253556 98.8518828 31.5253556 106.115615 9.02045188"></polygon>
                    <polygon id="logo-w1" points="52.8444519 9.02045188 45.7222427 31.3830962 40.8797992 31.3830962 37.0343096 16.9972218 33.1888201 31.5253556 28.3456402 31.5253556 21.2228954 9.16331381 26.777841 9.16331381 30.7662594 24.5461423 34.611749 9.16331381 39.7393808 9.16331381 43.5848703 24.5461423 47.5732887 9.16331381"></polygon>
                    <path d="M197.133523,24.2616234 C199.270293,24.2616234 200.83682,25.8281506 200.83682,27.9649205 C200.83682,30.1016904 199.270293,31.6682176 197.133523,31.6682176 C194.996753,31.6682176 193.430293,30.1016904 193.430293,27.9649205 C193.430293,25.8281506 194.996753,24.2616234 197.133523,24.2616234 Z" id="logo-p"></path>
                </g>
            </g>
        </g>
    </g>
</svg>